# xmcd
#
# Track frame offsets:
#	150
#	13345
#	37005
#	57925
#	83729
#	101522
#	121176
#	138647
#	161663
#	180683
#
# Disc length: 2791 seconds
#
# Revision: 3
# Processed by: cddbd v1.5.2PL0 Copyright (c) Steve Scherf et al.
# Submitted via: audiograbber 1.83.01
#
DISCID=840ae50a
DTITLE=Ulrich Roski - Rauhe Schale Weicher Keks
DYEAR=1981
DGENRE=Liedermacher
TTITLE0=Alles Kein Problem
TTITLE1=Rosemarie (Ab Heut' Wird Gespart)
TTITLE2=Schenken macht Freude
TTITLE3=Nimm Mal Wieder Einen Mit
TTITLE4=Wie Ein Kind
TTITLE5=Rauhe Schale - Weicher Keks
TTITLE6=Das Kommt Alles Vom Saufen
TTITLE7=Der Corned-Beef-Mäzen
TTITLE8=Was Gibt's Neues
TTITLE9=Alternativer Quark
EXTD=vinyl
EXTT0=
EXTT1=
EXTT2=
EXTT3=
EXTT4=
EXTT5=
EXTT6=
EXTT7=
EXTT8=
EXTT9=
PLAYORDER=
